/* XPM */
static char * wall_west_normal_xpm[] = {
"64 64 701 2",
"  	c None",
". 	c #BDAFE5",
"+ 	c #B95DEC",
"@ 	c #7661FB",
"# 	c #8061FB",
"$ 	c #8961FB",
"% 	c #465DEC",
"& 	c #42AFE5",
"* 	c #B0B2EA",
"= 	c #B35CEF",
"- 	c #8059F9",
"; 	c #4C5CEF",
"> 	c #4FB2EA",
", 	c #B856EA",
"' 	c #7759F9",
") 	c #8859F9",
"! 	c #5E53F2",
"~ 	c #549BF4",
"{ 	c #70DDD5",
"] 	c #6A5AF7",
"^ 	c #8076FF",
"/ 	c #8080FF",
"( 	c #806AFD",
"_ 	c #8089FF",
": 	c #9692FC",
"< 	c #8FDDD5",
"[ 	c #5BB4EE",
"} 	c #595BF3",
"| 	c #8073FE",
"1 	c #8092FE",
"2 	c #A791F7",
"3 	c #9BDCD3",
"4 	c #63B4F0",
"5 	c #6252F3",
"6 	c #8051F6",
"7 	c #9F76FB",
"8 	c #98D1DE",
"9 	c #37B7D9",
"0 	c #2F80E3",
"a 	c #949DFA",
"b 	c #8095FD",
"c 	c #8989FE",
"d 	c #6189FB",
"e 	c #899EFB",
"f 	c #9D9DF8",
"g 	c #6A89FD",
"h 	c #9580FD",
"i 	c #80AEF6",
"j 	c #9589FD",
"k 	c #769EFB",
"l 	c #80A6F9",
"m 	c #A59CF6",
"n 	c #91A6F8",
"o 	c #B5AAEB",
"p 	c #62C1E9",
"q 	c #2780DC",
"r 	c #6980FD",
"s 	c #7692FD",
"t 	c #AD99F4",
"u 	c #899BFC",
"v 	c #5299F4",
"w 	c #88B5F3",
"x 	c #B498F1",
"y 	c #99C0EA",
"z 	c #64B4F0",
"A 	c #70C1EC",
"B 	c #78C2EC",
"C 	c #6BADF5",
"D 	c #9592FC",
"E 	c #A691F8",
"F 	c #80BCF0",
"G 	c #5CB3EF",
"H 	c #A3B3EF",
"I 	c #6DC1EB",
"J 	c #67B4F1",
"K 	c #6EA6F8",
"L 	c #98B4F1",
"M 	c #A2BAEC",
"N 	c #C6ACE0",
"O 	c #71C3EB",
"P 	c #2B80DF",
"Q 	c #5880F9",
"R 	c #8980FF",
"S 	c #9B89FC",
"T 	c #9289FD",
"U 	c #A688F9",
"V 	c #C5B2DE",
"W 	c #B7BDE1",
"X 	c #3480E6",
"Y 	c #9D94FA",
"Z 	c #8C80FE",
"` 	c #6A92FC",
" .	c #7364FB",
"..	c #804AF3",
"+.	c #6294FA",
"@.	c #6A80FD",
"#.	c #A68BF9",
"$.	c #8976FE",
"%.	c #5994F7",
"&.	c #94A6F7",
"*.	c #9D9AF9",
"=.	c #809EFB",
"-.	c #7689FE",
";.	c #8992FD",
">.	c #9292FC",
",.	c #B877F2",
"'.	c #6680FC",
").	c #62D5D9",
"!.	c #8ECFE2",
"~.	c #93D7DA",
"{.	c #86D4DF",
"].	c #80BEEE",
"^.	c #97CEE1",
"/.	c #80D8DC",
"(.	c #8ECBE5",
"_.	c #9BB7EF",
":.	c #80B8F2",
"<.	c #68C3E9",
"[.	c #54CBDD",
"}.	c #68CEE1",
"|.	c #A7C1E6",
"1.	c #A2B6ED",
"2.	c #78C4EB",
"3.	c #87D0E2",
"4.	c #78D0E2",
"5.	c #8FC4EA",
"6.	c #80CBE6",
"7.	c #63CEE0",
"8.	c #72D7DB",
"9.	c #8DD7DB",
"0.	c #95CFE1",
"a.	c #ACB4EA",
"b.	c #6F80FE",
"c.	c #6080FB",
"d.	c #9D65F9",
"e.	c #896DFD",
"f.	c #6180FB",
"g.	c #B493F2",
"h.	c #D080E3",
"i.	c #A980F8",
"j.	c #3B80EB",
"k.	c #808CFE",
"l.	c #9280FE",
"m.	c #656BFA",
"n.	c #4560EC",
"o.	c #A25DF5",
"p.	c #B3A3EF",
"q.	c #6B9DFA",
"r.	c #7676FE",
"s.	c #8C89FE",
"t.	c #9B80FC",
"u.	c #9B8CFB",
"v.	c #6D89FD",
"w.	c #6D80FE",
"x.	c #929BFB",
"y.	c #A899F5",
"z.	c #C38FEB",
"A.	c #806FFE",
"B.	c #805DFA",
"C.	c #8081FF",
"D.	c #8066FC",
"E.	c #4444DF",
"F.	c #9295FC",
"G.	c #9CADF3",
"H.	c #BE80EE",
"I.	c #9E73FB",
"J.	c #4D55ED",
"K.	c #6492FB",
"L.	c #C197EA",
"M.	c #B577F3",
"N.	c #6E62FA",
"O.	c #6262F8",
"P.	c #6A76FD",
"Q.	c #896AFD",
"R.	c #8C6AFD",
"S.	c #9E76FB",
"T.	c #926DFC",
"U.	c #9B76FC",
"V.	c #4D80F5",
"W.	c #6E30E2",
"X.	c #8027DC",
"Y.	c #802BDF",
"Z.	c #802FE3",
"`.	c #8034E6",
" +	c #9130E2",
".+	c #9680FD",
"++	c #803CEC",
"@+	c #804EF5",
"#+	c #A4ACF1",
"$+	c #9B92FB",
"%+	c #B091F4",
"&+	c #6D6AFC",
"*+	c #9E8CFB",
"=+	c #9E80FB",
"-+	c #B880F2",
";+	c #6D76FD",
">+	c #806DFE",
",+	c #8854F7",
"'+	c #9264FB",
")+	c #9276FD",
"!+	c #646DFB",
"~+	c #6480FC",
"{+	c #7680FF",
"]+	c #93C2EA",
"^+	c #6969FB",
"/+	c #8072FE",
"(+	c #897EFF",
"_+	c #8972FE",
":+	c #A687F9",
"<+	c #8D99FC",
"[+	c #69C2EA",
"}+	c #7280FE",
"|+	c #9A65F9",
"1+	c #B177F5",
"2+	c #B180F5",
"3+	c #6D92FC",
"4+	c #9E89FB",
"5+	c #A694F7",
"6+	c #53A4F1",
"7+	c #88A6F9",
"8+	c #958CFD",
"9+	c #8C8CFE",
"0+	c #8964FC",
"a+	c #989AFA",
"b+	c #5C77FA",
"c+	c #A36EF9",
"d+	c #766DFD",
"e+	c #8995FD",
"f+	c #CA98E4",
"g+	c #9462FA",
"h+	c #C397E9",
"i+	c #8851F6",
"j+	c #9CA5F6",
"k+	c #6FB5F2",
"l+	c #809BFC",
"m+	c #9B6DFB",
"n+	c #80A3FA",
"o+	c #9AA3F7",
"p+	c #629DF8",
"q+	c #9595FB",
"r+	c #CCA4DE",
"s+	c #7880FF",
"t+	c #BE88EE",
"u+	c #5877F8",
"v+	c #9A94FA",
"w+	c #956AFB",
"x+	c #9573FD",
"y+	c #B1A1F0",
"z+	c #9980FD",
"A+	c #3B87EB",
"B+	c #A677F9",
"C+	c #B580F3",
"D+	c #769BFC",
"E+	c #77A3FA",
"F+	c #AB80F7",
"G+	c #94ADF5",
"H+	c #91ADF5",
"I+	c #BD97EC",
"J+	c #9A62F9",
"K+	c #A988F8",
"L+	c #5D80FA",
"M+	c #8776FE",
"N+	c #ABABEF",
"O+	c #6A6DFC",
"P+	c #6176FB",
"Q+	c #B574F3",
"R+	c #BA9FEC",
"S+	c #4188EE",
"T+	c #6173FB",
"U+	c #9162FA",
"V+	c #7376FE",
"W+	c #5991F8",
"X+	c #6D9BFB",
"Y+	c #6EABF6",
"Z+	c #99AAF5",
"`+	c #AB77F7",
" @	c #6D6DFC",
".@	c #AE80F6",
"+@	c #ACA4F1",
"@@	c #659AF9",
"#@	c #B099F3",
"$@	c #766AFD",
"%@	c #8780FF",
"&@	c #AD94F5",
"*@	c #88AEF6",
"=@	c #BB67EE",
"-@	c #8973FE",
";@	c #629AF9",
">@	c #AD6EF5",
",@	c #91ABF6",
"'@	c #66AAF5",
")@	c #8064FC",
"!@	c #AC5BF1",
"~@	c #5188F6",
"{@	c #6A8CFD",
"]@	c #A977F8",
"^@	c #AAB2ED",
"/@	c #6D95FC",
"(@	c #AA66F5",
"_@	c #4180EE",
":@	c #A680F9",
"<@	c #65A5F6",
"[@	c #AB6EF6",
"}@	c #5EAAF3",
"|@	c #A380FA",
"1@	c #6565F9",
"2@	c #6E9DFA",
"3@	c #77A6F9",
"4@	c #919DFA",
"5@	c #9459F7",
"6@	c #956DFC",
"7@	c #9A9DF9",
"8@	c #7E80FF",
"9@	c #928CFD",
"0@	c #B2AAED",
"a@	c #AA99F5",
"b@	c #88ABF7",
"c@	c #5DA2F5",
"d@	c #9A9AF9",
"e@	c #5477F7",
"f@	c #6D64FB",
"g@	c #AE8BF6",
"h@	c #74A6F9",
"i@	c #738CFE",
"j@	c #8C76FE",
"k@	c #7695FD",
"l@	c #6A95FB",
"m@	c #926AFC",
"n@	c #B888F2",
"o@	c #85D8DC",
"p@	c #A8BBE9",
"q@	c #88B8F2",
"r@	c #99B0F3",
"s@	c #90BEEE",
"t@	c #80B1F5",
"u@	c #A997F6",
"v@	c #4BC4DD",
"w@	c #A1BCEA",
"x@	c #77BEEE",
"y@	c #77B1F5",
"z@	c #80A9F8",
"A@	c #A9A7F1",
"B@	c #8099FD",
"C@	c #9898FA",
"D@	c #6476FC",
"E@	c #77ABF7",
"F@	c #AE74F6",
"G@	c #9D6BFA",
"H@	c #626BFA",
"I@	c #C1A2E8",
"J@	c #8078FF",
"K@	c #804DF5",
"L@	c #8038E9",
"M@	c #803DEC",
"N@	c #8043F0",
"O@	c #463CDB",
"P@	c #91A3F9",
"Q@	c #8C73FE",
"R@	c #6A6AFB",
"S@	c #7373FE",
"T@	c #9A6BFA",
"U@	c #6989FD",
"V@	c #AB54EF",
"W@	c #3C80EC",
"X@	c #7228DB",
"Y@	c #792BDF",
"Z@	c #8E30E2",
"`@	c #8627DB",
" #	c #803BEB",
".#	c #782FE2",
"+#	c #8841EE",
"@#	c #C94CDA",
"##	c #3939CF",
"$#	c #8734E6",
"%#	c #BB32D1",
"&#	c #78C3EB",
"*#	c #7673FE",
"=#	c #6B9AFA",
"-#	c #A66EF8",
";#	c #8060FB",
">#	c #807EFF",
",#	c #D086E2",
"'#	c #70C3EB",
")#	c #2A62D9",
"!#	c #8058F9",
"~#	c #8069FD",
"{#	c #659DF9",
"]#	c #9D91FA",
"^#	c #CB87E6",
"/#	c #5980F9",
"(#	c #AE88F6",
"_#	c #BE92ED",
":#	c #AD91F5",
"<#	c #A388FA",
"[#	c #A9A9F1",
"}#	c #80B5F3",
"|#	c #B798F0",
"1#	c #9576FD",
"2#	c #C399E9",
"3#	c #5180F6",
"4#	c #8C6DFD",
"5#	c #7389FE",
"6#	c #CB80E6",
"7#	c #A59AF6",
"8#	c #B8B5E4",
"9#	c #99ADF4",
"0#	c #D394DE",
"a#	c #9159F8",
"b#	c #A66BF7",
"c#	c #CB8EE5",
"d#	c #949AFA",
"e#	c #88A3FA",
"f#	c #7664FC",
"g#	c #9ABAED",
"h#	c #A0B3EF",
"i#	c #3D80EC",
"j#	c #618CFB",
"k#	c #AB56F0",
"l#	c #AE77F6",
"m#	c #3CC3D3",
"n#	c #80D4DF",
"o#	c #80D0E3",
"p#	c #80C4EB",
"q#	c #90CFE2",
"r#	c #97BDEC",
"s#	c #77B8F2",
"t#	c #77A9F8",
"u#	c #88A9F8",
"v#	c #91B0F4",
"w#	c #86CBE6",
"x#	c #99A8F5",
"y#	c #88B1F5",
"z#	c #91A9F7",
"A#	c #9BCEE0",
"B#	c #AFA6EF",
"C#	c #4543DF",
"D#	c #5599F5",
"E#	c #AB6BF6",
"F#	c #8096FD",
"G#	c #808DFE",
"H#	c #C38BEB",
"I#	c #3E62E9",
"J#	c #2F4BD3",
"K#	c #6BA6F7",
"L#	c #80ABF7",
"M#	c #4380F0",
"N#	c #643DE9",
"O#	c #672DDD",
"P#	c #8024D8",
"Q#	c #9935E4",
"R#	c #9F80FB",
"S#	c #9D62F8",
"T#	c #2786DB",
"U#	c #A565F6",
"V#	c #A377FA",
"W#	c #6161F7",
"X#	c #8087FF",
"Y#	c #9287FD",
"Z#	c #8969FD",
"`#	c #8DA2FA",
" $	c #5080F6",
".$	c #CE97E1",
"+$	c #8BC3EB",
"@$	c #4A80F3",
"#$	c #A4A4F4",
"$$	c #805CFA",
"%$	c #885CFA",
"&$	c #5177F6",
"*$	c #CBABDD",
"=$	c #CA91E5",
"-$	c #8180FF",
";$	c #5988F9",
">$	c #626EFA",
",$	c #B56FF2",
"'$	c #5C6EF9",
")$	c #B1B1EA",
"!$	c #8C61FB",
"~$	c #9152F5",
"{$	c #8C95FD",
"]$	c #4CC9DA",
"^$	c #A6AFEF",
"/$	c #5C80FA",
"($	c #6EA3F9",
"_$	c #9A5CF7",
":$	c #BB90EF",
"<$	c #63ADF3",
"[$	c #CF8EE2",
"}$	c #5C91F9",
"|$	c #A2A2F5",
"1$	c #AD9CF3",
"2$	c #C478EB",
"3$	c #90BBEF",
"4$	c #9AA5F6",
"5$	c #A866F5",
"6$	c #967EFD",
"7$	c #B464F0",
"8$	c #9892FB",
"9$	c #7392FD",
"0$	c #81C3EB",
"a$	c #6B62FA",
"b$	c #A563F6",
"c$	c #A39AF7",
"d$	c #B790F1",
"e$	c #A38BF9",
"f$	c #D078E2",
"g$	c #8D80FE",
"h$	c #768CFE",
"i$	c #7395FD",
"j$	c #9D6EFA",
"k$	c #5BA4F4",
"l$	c #77AEF6",
"m$	c #B588F3",
"n$	c #A45BF4",
"o$	c #65A3F7",
"p$	c #BC80F0",
"q$	c #C480EB",
"r$	c #AD6BF5",
"s$	c #75BCEF",
"t$	c #B06EF4",
"u$	c #AD63F3",
"v$	c #A180FA",
"w$	c #A96EF7",
"x$	c #9273FD",
"y$	c #6ED3DE",
"z$	c #9ECDE0",
"A$	c #65BDEC",
"B$	c #ABCBDD",
"C$	c #98B7F0",
"D$	c #80A1FA",
"E$	c #5088F6",
"F$	c #BE77EE",
"G$	c #6D8CFD",
"H$	c #A946EA",
"I$	c #C29BE9",
"J$	c #6089FB",
"K$	c #6EADF5",
"L$	c #A453F1",
"M$	c #B255ED",
"N$	c #A674F9",
"O$	c #6DBEED",
"P$	c #91CAE5",
"Q$	c #97C3E9",
"R$	c #6FBEEE",
"S$	c #A1A8F4",
"T$	c #A2A5F5",
"U$	c #9687FD",
"V$	c #AC5EF2",
"W$	c #AB88F7",
"X$	c #75D7DB",
"Y$	c #92C4EA",
"Z$	c #8AC4EB",
"`$	c #804CF4",
" %	c #8054F7",
".%	c #79C3EB",
"+%	c #C278EC",
"@%	c #B388F4",
"#%	c #C1A1E8",
"$%	c #9929DA",
"%%	c #8D28DB",
"&%	c #7328DB",
"*%	c #693DEA",
"=%	c #93B4F2",
"-%	c #B380F4",
";%	c #7434E6",
">%	c #8A41EE",
",%	c #BE49E0",
"'%	c #6E58F7",
")%	c #7758F8",
"!%	c #A346EB",
"~%	c #A2C1E8",
"{%	c #915CF9",
"]%	c #BE90EE",
"^%	c #7273FE",
"/%	c #B188F5",
"(%	c #586EF7",
"_%	c #6489FC",
":%	c #D886DB",
"<%	c #A780F9",
"[%	c #75CFE2",
"}%	c #A6C8E1",
"|%	c #5888F8",
"1%	c #6995FB",
"2%	c #908CFD",
"3%	c #C99FE3",
"4%	c #C293EA",
"5%	c #A153F2",
"6%	c #86D0E2",
"7%	c #B097F3",
"8%	c #878CFE",
"9%	c #77B5F3",
"0%	c #9465FA",
"a%	c #C487EB",
"b%	c #A09AF8",
"c%	c #5580F8",
"d%	c #C381EB",
"e%	c #9081FE",
"f%	c #A378FA",
"g%	c #896FFE",
"h%	c #A85FF4",
"i%	c #D770DB",
"j%	c #5959F3",
"k%	c #8987FE",
"l%	c #9158F7",
"m%	c #9989FC",
"n%	c #BD4BE2",
"o%	c #C380EC",
"p%	c #63A5F6",
"q%	c #9976FC",
"r%	c #7669FD",
"s%	c #7660FB",
"t%	c #D885DC",
"u%	c #D880DC",
"v%	c #66C0EA",
"w%	c #6F44EF",
"x%	c #459AED",
"y%	c #BD65EC",
"z%	c #B46CF2",
"A%	c #655CF7",
"B%	c #4F57EE",
"C%	c #8026DA",
"D%	c #9B4BF0",
"E%	c #CF90E2",
"F%	c #5BACF1",
"G%	c #B467F1",
"H%	c #739EFB",
"I%	c #2680DA",
"J%	c #DD80D7",
"K%	c #94A3F8",
"L%	c #BBA8E9",
"M%	c #9BB4F0",
"N%	c #80D6DD",
"O%	c #A7B9EA",
"P%	c #BA9AED",
"Q%	c #B9A7EA",
"R%	c #526BF5",
"S%	c #9C5AF6",
"T%	c #9865FA",
"U%	c #6992FC",
"V%	c #C470EA",
"W%	c #5294F5",
"X%	c #54ABEF",
"Y%	c #898CFE",
"Z%	c #696DFC",
"`%	c #6076FB",
" &	c #5A63F6",
".&	c #A991F7",
"+&	c #B76FF1",
"@&	c #8C64FB",
"#&	c #BA65ED",
"$&	c #5488F7",
"%&	c #74B5F3",
"&&	c #7751F6",
"*&	c #C287EC",
"=&	c #986DFB",
"-&	c #B767F0",
";&	c #B066F3",
">&	c #5D5DF5",
",&	c #A155F3",
"'&	c #985CF8",
")&	c #623EE9",
"!&	c #9754F5",
"~&	c #6B4AF1",
"{&	c #7295FC",
"]&	c #786DFD",
"^&	c #7A21D5",
"/&	c #7E9EFB",
"(&	c #6655F5",
"_&	c #9955F5",
":&	c #6E54F6",
"<&	c #5E65F8",
"[&	c #7422D5",
"}&	c #5B4BEE",
"|&	c #7754F7",
"1&	c #B742E1",
"2&	c #A629D5",
"3&	c #AA32DC",
"4&	c #802ADE",
"5&	c #8622D6",
"6&	c #8022D6",
"7&	c #801FD3",
"8&	c #5427D1",
"9&	c #532AD3",
"0&	c #8625D9",
"a&	c #9926D7",
"b&	c #862EE1",
"c&	c #902EE0",
"d&	c #A32DDA",
"e&	c #802EE1",
"f&	c #801DD0",
"g&	c #801ACD",
"h&	c #5625CE",
"i&	c #8C25D8",
"j&	c #AC3CE2",
"k&	c #9E30DF",
"l&	c #872EE1",
"m&	c #7A22D6",
"n&	c #8042EF",
"o&	c #8025D9",
"p&	c #8037E8",
"q&	c #AC28D1",
"r&	c #B84FE7",
". + @ # # # # # # # # # # # # # # # # # $ % & * = - - - - - - - - - - - - - - - - - - - - - - - - - - ; > . , ' - - - - - ) ! ~ ",
"{ ] # # ^ # / # # ( / ( ( / ( ( / # / _ _ : < [ } ( - # _ ( - | 1 1 | / ( ( / 1 / ( - ( / | ( - - ( | 2 3 4 5 6 # ( # - - ( 7 8 ",
"9 0 _ a b c _ d e f / g h i g j k l m e n o p q r / s t u v w x y z A B C D E F G G F H w I J K n L M N O P Q R S _ K s T U V W ",
"0 X Y Z `  ...j a +.@./ #.$.%.&.*.=.-.;.>.,.'.q ).!.~.{.].^./.(._.:.(.<.[.}.|.1.2.3./.4.5.6.7.8.9.0.6.a.b.P c.;.$.d.e.f.-.g.h.i.",
"0 j.k.l.m.n.o.p.h / q.r.s.) t.u.v.w.t.x.s y.'./ z.1 / ^ ^ ^ - ^ ..- ....# / / 6 - - 6 A.A.B.A.C.C.A.D.A.E.P r ^ w.r.$ F.m G.H.H.",
"0 j.I.g J.K.L.M.N.( O.P.Q.| R.S.T.s >.U.T.i.V.0 W.X.X.X.Y.Z.`.`.X.`.`.Y.`.`.Y.X.X.Z. +.+++Z.Z.Z.Z.`.`.@+++c.Q c ;.1 #+f F.$+%+i.",
"0 X Q.&+w.;.;.6 Q./ s / $.R *+=+$.T 1 w.1 -+'.0 Q ;+>+,+'+)+R !+/ S v._ )+;+~+{+l.T h.]+0 ^+/+/+(+_+:+<+[+c.}+x.-.j &.r.U.|+1+2+",
"0 0 R b 3+-.R F.4+5+d 6+7+8+9+e.t.T.0+t.>.a+V.0 c.v.b+{+c+S d+^ $+0+/ 3+;+e+c i u / f+.+0 }+c s._ e+5+H.[+P }+'+r.4+g+&+/ |+h+2+",
"0 X Y k.+.-.&.e e+# i+j+k+K l+>.;.d+T.|+m+i.V.0 c.~+-.n+o+>.-.c w.$.U.r.D =.i e p+q+r+s+0 }+$./ j q+x.t+'.P u+e+v+_ ' w+x+y+h+z+",
"0 A+q+^ P.e+Y 1 f.O.B+C+R D+E+l+-.3+/ m+F+i.V.0 c.r.1 T >./ 3+r.e./ ^ $.G+E e+w.b H+I+'.0 r $.=+q+J+t.K+L+q M+N+O+P+k c Q+R+i.z+",
"X S+Z T+_ a U+V+W+k H B+$.T / r.l+X+Y+Z+`+i.V.0 Q r.c _ T.T. @~+d+)+)+.@+@@@;+$ >.$+#@L+0 r e *+$@/ C+H.L+q %@6 f.&@*@C &@=@i.z+",
"X j./ -@a ;@{+>@e+*@=.-.U./ K.U.U.l+,@'@^ 2+V.0 Q _ T -.s )@/ s 1 c $.C+!@' ~@R t S 1+V.0 %@q+{@$.+@S ]@L+q Q .@^@H+l.K /@(@H.z+",
"X _@| b :@{+<@u S l+^ / / [@{+}@|@c+/ 1@_ 2+V.0 c._ ,+0+2@=.$+s K 3@7+4@0+5@6@7@t.{+i.'.0 8@g+/ 9@T e.,.'.q %@0@l.-._ _ X+a@H.z+",
"X X h h 1 R >.x.R {+'@l+b@l+|@o+c@/ R w.d@i.V.0 c.e@f@=@g@h@i@j@h 7+=.k@l@k.j t.)+t.#@V.0 r j x+m@>.;.n@'.q o@p@q@r@s@t@].s@u@z+",
"X v@6.s@w@x@:.y@z@A@r@].t@:.t@B@B@:.B@t@z@C@V.0 Q D@E@t F@/ {@P.G@g+r.$.| 7+u R t.S i.V.0 %@R H@F@= 1 i.L+/ I@J@J@A.B.B.B.B.K@++",
"Z.)@- ^ ..6 - 6 # 6 L@M@M@M@M@B@L@L@L@M@M@N@O@9 Q _ P@u h Q@R@@./ g+j S@T@U ;+l+S $+i.V.0 U@# R / V@>@]@'.W@Z.Z.Z.Z./ X.X.X.X.X.",
"X@Y@Z@`.Z.`@Y.Z. #.#Z.+#Z.`.@#{+##Y.$#`@`@+#%#&#P ;.R Z 0+R@*#/ / =+R =#a 6@d@Z+l.l.z+V.X U@_ =.=.m -#n@'.0 ^+;#>#,#'#)#!#~#;#!#",
"e.T >._ {#{+l.Y =.g ]#=.q.4+^#/#P )+r.D@(#b _#l.0 / / w.- U.b k b q+:#F./@<#[#K.;+t.i.V.X }+j G.}#i S |#L+0 c.1#B+2#3#q >.c v.-.",
"c S T 4#r.=#D f 5#q.j h q.l@6#w.q r.e.S 7#w+8#f.P $.R ~+1 5+S.=.k 9#;.;+;.a@c+1@/ t.z+V.X }+&@t _ D+>.%+V.0 c.k U 0#3#0 R d+/ _ ",
";.4@{+ @a#)+a j ( @.b w+l+b _#/#q / u n l.b#c#3#P _ $._ d#_ -@=+x.e#{+>.x._ f#d+u t.i.V.X %@&@)+/ R x.i.V.0 8@g#h#I+i#q >+R R / ",
"j R j#K./ k#5+R@@.h l $+j ~+H./#q x.l#l l@5+6#3#m#n#3.3.o#p#q#w@r#t@s#q@z@t#u#r@v#z@C@V.X w#w@x#y#z#z#C@V.9 A#|.].B#C#q R ;._ 1 ",
"^ h e+p+D#U E#/ q+l.>.k f@D+I+/#X D+h :#b F.t+2+F#F#F#G#G#G#G#J@D.B.D.D.B.D.D.B.K@K@K@E./ H#J@D.B.N@L@L@Y.;#^ N@..I#J#Q >.T ;.;.",
"S.:@/ @.K#L#=+h R@l.S. @T t.y.M#X '+7#1#3+d@H.L+E.Y.Y.Y.Y.Y.Y.Y.Y.Y.Y.Y.Y.Y.Y.Y.Y.Y.Y.Y.;#`.Z.++N#O#P#Y.P#Z.Z.Z.Q#R#Q r T c c / ",
"R S#Q.R >+_ / R@w+Y >+R l+R H.M#T#'+5+U#V#1 i.'.P W#!#;#~#!#!#!#;#!#~#;#~#!#;#X#~#!#!#!#Y#Z#`#]+c. $>+/ e.m+_ ;..$+$q c.m+T / / ",
"/ l.=+/@V+T.- l q+w+e.U.)+l+]@@$T#G.#$s U.|@2+L+P Q ^ T {+ @$$%$^ 0+%$_ r.-.(#$.&$v._ (#T v+*$p P  $/ >+w.|+|@q+=$-$q Q t.|+^ ^ ",
"c ]#Y / ;$>$,$B+/#{+j@T.c+R ]@3#S+N+u E+P@c ]@'.P Q c c !+'$ @|+$.1@o.|+^ H+v.w.4@>.i i S#)$H.L+P  $3+_ / d@&@S.h+s+q c./ 0+)+^ ",
"R 4+!$H@T+-.R ~$]#{$s >.|@R K+/#]$p@r@:.:.t#^$'.P c.R d+/$3+s >.1 ($c _$:$R =.G.<$l =+p+7@x i.L+P c.R X+l+t / t.[$'.q Q ^ l.)+^ ",
"l.k.^ m@{+3+_ C+j+-.e#l+>.>.y.i.G#J@B.B.B.B.D.E.P Q {+e.c X+X+Z+$+}@}$|$<#S#f ^ $.p+{+*.L t.]@L+P  $e.|+l+/ h 1$2$'.q Q 1 ;.e.^ ",
"j h q.P.$./ s 1$B+;.;._ S l.z+V.E.Y.Y.Y.Y.Z.Z.++c.c.s 1 $./ *@*@/  @l+3$/ =+h r.$.e.4$S _ {+i.'.P  $w.|+S j =+m@t+b.q r >.3+{+R ",
"c h *#l@/ $.f G.l.>./ -.$.R 5$L+P W#;#>#Z#_+6$]+c.r $.v.r.:@f l@/#{+:#e f.=+g+s / )+x.>+T.T.y.L+P  $3+|@<#-.*#7$[$L+q r T.-.D+l ",
"s.k./ k l@Y &@>.c $.)@d+l.1 8$'.P c.4+c 9$q+^#0$P Q >+>+1 :@S#a$g 1 j+/ p+/ b$D ($c$>.v./ c+d$V.P c.3+x.e$>+{+.@f$L+q Q v+v+D D ",
"Z Z $.| 3@e t.)+{+ @f#'+F+m+a+V.P r c -@q+=.h+g$P Q {+T *@-.# U+R h f _ p+<$#$C+;.n+1 ($s |$-+V.P c.R =+h$O+e.(#f$'.q 8@#$i@i$/ ",
"Z $@S@B+h -.;.l._ X+E+T t.m+i.V.P r )+q+j$t.o '.P Q ;.:#>+k$-.c R f U / R *@l$/ T.|@>.X+_ T z+V.P c.v.d.m@p+T m$^#'.q 8@n$c e+b ",
"k@| j 9+$.t.l.$.T u o$X+T U.i.V.P c.S.>+1 p$q$L+P r *@ @=+l.d 7+f j+1 r.l.T.-.-.;.|@|+1@D@U.2+V.P r  @l+r$;.s$1$6#L+q Q r$r$( ( ",
"l@l@9+j ;./ >+m+|@$.d+s -.l.t$V.P c./ u$(#e#-+'.P %@{+>+H+O.=+j+7+>.s w./ T.l.;.;.-.d+^ >.$+v$V.P  $0+d@c m$=+k -+'.q r >.$ Q.^ ",
"{+h$7+>./ s / t.t.d+^ ;./ / w$L+P c.1 ;.:$,$i.L+P r @ G.U+f.m t u ;.v.K.1 >.t.c 1 1 u u l+c v$V.P  $R |@f / i+l#-+L+q r T R 1#{$",
"{+x$T 3+$.1 v.d@)+1 d@/ K.1 %+L+P }+>.:#j@{+2$'.P y$z$/.A$^.B$C$t@t@t#x@].].y#x#z#z@z@D$D$D$C@V.P E$;.C+e+` q+B+F$'.q }+T k@*+4+",
"@./ n$>+_ e.c u l.S 3+)@>._ 8$V.P }+T.G$H$C+K+'./ I$F#J@F#F#J@B.B.B.B.D.D.D.D.B.K@K@K@K@K@K@K@E.0 J$1 B+u$b K$>.I+'.q }+U#{$e+R ",
"{+@.^ j$;.^ U.T.l+l.{+1 R / i.V.P c.j$k.=.p$q$L+W@Z.Z.Z.Z.Z.Z.Z.Z.Z.Z.Z.Z.Z.Z.Z.Z.Z.Z.Z.Z.Z.Z.++r c.{+R L$M$l.>.#@V.q Q :@N$c $.",
"O$2.P$Q$q@R$:.A@S$z@B@t@B@z@C@V.P c.=+4+T$o+i.'.0 ^+!#!#!#!#!#!#;#~#~#~#~#~#~#~#/+>#X#!#/+~#U$]+r c.>+-./ V@V$W$2+V.q X$~.Y$Z$x@",
"J@G#C.J@D.1 l+/ $$`$`$`$ %$$)@E.P J$:@U S |+K+L+0 u+ @)@)@>+/ R )+$.)@>+_ _ / R j a %.q.F.j .$.%0  $_ t.3+q++%@%i.V./ #%/ k.^ p#",
"++`.Z.Y.$%$%X@X@X@X@X.`@%%%%&%*%r J$4+B+/ |+F$L+P u+w.r.$.U.T -.{+;+d+c+7@k k e S.R.# l+@.e c#s+0 r / / a =%|$-%i.V.j.;%`.>%,%q$",
"}+^+'%'%)%M@M@6 - # - ( # - !%~%r r j G@u >.F$'.P Q w.-._ l.{%$$/ {+s N+&@b =.p++.( c R D :@]%'.0  $^ g.#$d@P@T.i.V.X ^%q+D ]%H.",
"r u+ @/ _ >+e.T / w.R x.1 w.h.~%0 r c C+7#D+/%'.P Q {+_ 1 v.f@|+|+l E 7#/ / _ _ K#b a e+l@R 6#'.0 c.d#+@$+l.{+l.-+V.X %@f R |#-+",
"r (%{+R _%!+m+)+-.1 $+T.!+v.:%<%0 [%q#}%S$t@^$L+P |%-.R _ ~+3+/ =@V#g S#w+R c _ 3+3@u / ^ F.H.'.0 1%#$(#1 c l.T i.V.X 2%h l.]%i.",
"Q (%1 R v.@@x.F+d@D+@@f@t.7+3%R#/ 4%G#C.B.B.B.E.0 J$3+_ >+D+Y+3+P@5%l.$.S#S#$.$.c u w.K.l+P@]%'.j.6%3.C$r@:.t#z#7%V.j.8%l.d@,.i.",
"Q r R _ 1 9%l+T )+/ _%s :@0%a%-$W@X.X.Y.Z.Z.`.++r r -.D@T.c$@@E@l+1 l./ b =+S#T.)+w.^ d@x.b@b%c%/ d%J@J@B.B.B.D.K@E.j.e%f%g%h%2+",
"Q Q e.$+=+;+f.e )+e.d+_%2@m@i%.+q j%k%l%(+_+6$+$r r !+D@<#c+/ X+d+R >+=+f q.{+=+t.R ;.c l.T m%V.W@Y.Y.Y.Y.X.X.X.X.X.!#- ..M@n%o%",
"Q Q t.)+1@$@m $.+.d+b m ;.p%h..+q %@1 {+U._ =$0$0 Q ;+l+u m+T.!+D@>+T.>@S#/ k.>.>./ R $.T.T.q%V.P W#;#~#r%s%;#;#;#~#>#!#~#~#t%u%",
"Q Q 1 )@T E v.- $.;.#$v%{+/ q$.+q r i+l$m@5+c#s+0 c./ ;.s -./ r.{+/ / T.u$g+$ c$c -._ r.e._$5$c%P c.c R f#d+_ _ c *.3+` >.*.r+H.",
"Q r _ u x.d+w%{+T@m 7$/ x%H@h..+q Q l#T _ 5+y%b.0 Q ^ T./ c ^ {#K / / l.l.# z%C+/ _ {+v.D+c -+'.P r ^ '$A%m+m+/ l.e+{+1 c f c#H.",
"Q c.t.l.D@B%C%(@E / $ D%P+p+E%.+q c.T $ f # H..+0 Q 3+T.T v.q+m F%k$1 >.l.=.m G%)+r./ T ;.n+b%c%P Q -.;+E@c T.l.=+S.@.H%f 5+I+2+",
"Q r / )@!+I%/ J%-%-./ g+K%F L%-$q c.T B+^ R r+b.0 r 3+R t.q+&._ -.<$K#i Y M%}#U+~$e.$./ l.T m%V.P }+{+_ E@c@P@T c c 4+f b d@H.i.",
"Q c./ / ^ c@N%O%g@k.p+P%Q%($b%'.q r $.r.b#g.t+'.0 r v./ U#h i+R / {+=.=.v+|@v R%S%d.T.m+)+e.T%V.P Q >+$+l.n+E+-.j+j+i / d@x.]@2+",
"Q U%^ -.R 1 y G._ $ T <#_$ @v$'.q Q $.S f B+V%'.0 }+ @@@t.- w+l#{+_ ;.r./ |@@.W%Z S#)+e.)+>+i.'.P c.c >.$./ {+h m T s c t.{+K+2+",
"r Q {+R R m f a$d ( $ g+U#{%/%'.q c.>.S.q+c V%s+0 Q 0+>.K.^ 7#S.U+Q.v.v.|$<#~+X%l@j S.S T l.y.V.P c.l.e.>+Y%d+1#b#)+/ &+~$t.y.i.",
"Q Z%1 r.U 4+P+R 7++.$.B+w+)+H.L+q r ^ =+t l+]%s+0 Q 1 )+_ u a {+a$n$n$>.l+>+T.@@J }#P@S ;.>.i.V.P `%r.>+5+^ >$)+n$b$O+ &r$=@.&z+",
"Q U@/ l 7@h w+L E+X%l@R b$U +&'.q Q )+:$.@_ #@'.0 r _ R c j @&H@q./ n$:#/ {+T.U.u L#Y+c $+1 z+V.q u+R E e H@-./ T.b#>+l@q+=@H.z+",
"c.U@=+=%i {@d@#&>+$&;$%&j+]#n@b.q J$>.#+:@t.n@L+0 c.^ T.e+1@&&r$}#<$0@m$v.3+u T t.T v.1 T./ z+V.q c.T 4+- @.-.3@4@m j b b a@H.z+",
"c.U@.@.@w.l+l@v.j$g d@m l R K+L+P U@m$&@_ c 1+L+0 c.v.B+)@&$H+*&t l$i $.R ;.e#l+e.%$f#3+$.l.=&V.q c.)+d+| l.f &.*@F.{+-.$+[#5$z+",
"r U@j 1#m+_ e.7@_ _ 2@>+>+)@-&*%P U@Y -#m+e.;&*%0 r -.X+$ t *@7@U#d+>+e.e.)+)+b+>&,+,&{%/ d+'&)&q Q _ t.H+j =+R _ r.$.l.<#>+!&2+",
"~&{&Y h _ >+_ 0+e.)@>+r.d+^ ]&^&~&/&Y c ^ >+]&^&~&r 0+=.l Y 1#k.)@>+>+e.'+'+,+(&D@^ >+_&_$:&<&[&}&r n j+e+p+h =+^ / / $.e.|&+&1&",
"2&3&4&5&5&6&6&6&7&7&7&7&6&6&8&9&2&3&0&5&6&6&8&9&a&b&c&d&e&4&6&5&5&6&6&6&7&f&g&g&6&6&6&6&g&g&h&9&i&j&k&l&5&4&e&6&6&6&6&6&7&7&m&^&",
"n&o&o&o&6&6&6&6&6&6&6&6&6&6&6&n&n&o&o&6&6&6&6&n&n&e&M@o&o&o&o&o&6&6&6&6&6&6&6&6&6&6&6&6&6&6&6&n&n&p&o&o&6&6&6&6&6&6&6&6&6&6&q&r&"};
